<?xml version="1.0" encoding="UTF-8"?>
<svg version="1.1" xmlns="http://www.w3.org/2000/svg" width="117" height="35">
<path d="M0 0 C2.25 0.125 2.25 0.125 5 1 C7.51871094 4.14838867 9.3808667 6.97563355 10 11 C11.32 11 12.64 11 14 11 C16.66427075 15.55146253 17.64718677 18.7300506 17 24 C15.62712495 27.5798086 13.72657977 30.33753021 10.875 32.9375 C6.54418107 34.53802004 2.55751179 34.65002973 -2 34 C-5.83378636 32.18766463 -7.53351018 30.69973473 -9.875 27.1875 C-11.74659262 21.88465425 -11.6970305 18.49732477 -9.3125 13.375 C-7.28485135 10.14230749 -4.6933804 7.6933804 -2 5 C-0.680982 2.33466965 -0.680982 2.33466965 0 0 Z " fill="#ec6d6d" transform="translate(14,0)"/>
<path d="M0 0 C5.28 0 10.56 0 16 0 C16.99 2.31 17.98 4.62 19 7 C20.54571278 4.68143083 21.79618552 2.49361571 23 0 C24.65 0 26.3 0 28 0 C24.79204532 17.49793462 24.79204532 17.49793462 19.0078125 22.83984375 C16.52475601 24.27460596 14.82170846 24.23514237 12 24 C12 22.35 12 20.7 12 19 C13.32 19 14.64 19 16 19 C15.34580901 13.93001981 13.1453591 9.58009223 11 5 C9.68 5.33 8.36 5.66 7 6 C6.67 9.63 6.34 13.26 6 17 C4.02 17 2.04 17 0 17 C0 11.39 0 5.78 0 0 Z " fill="#fdfdfd" transform="translate(78,11)"/>
<path d="M0 0 C1.65 0 3.3 0 5 0 C5.33 3.63 5.66 7.26 6 11 C6.99 11.33 7.98 11.66 9 12 C9.33 8.04 9.66 4.08 10 0 C11.98 0 13.96 0 16 0 C16 5.61 16 11.22 16 17 C14.02 17 12.04 17 10 17 C8.700625 17.309375 8.700625 17.309375 7.375 17.625 C4.50741114 18.07777719 3.37406323 17.61097148 1 16 C-0.50156874 12.99686252 -0.09281204 10.20932478 -0.0625 6.875 C-0.05347656 5.59367187 -0.04445312 4.31234375 -0.03515625 2.9921875 C-0.02355469 2.00476563 -0.01195312 1.01734375 0 0 Z " fill="#fdfdfd" transform="translate(40,11)"/>
<path d="M0 0 C0.94875 0.04125 1.8975 0.0825 2.875 0.125 C2.875 1.775 2.875 3.425 2.875 5.125 C2.215 5.125 1.555 5.125 0.875 5.125 C1.535 5.455 2.195 5.785 2.875 6.125 C2.875 7.775 2.875 9.425 2.875 11.125 C1.555 11.125 0.235 11.125 -1.125 11.125 C-1.125 15.085 -1.125 19.045 -1.125 23.125 C-2.775 23.125 -4.425 23.125 -6.125 23.125 C-6.125 19.165 -6.125 15.205 -6.125 11.125 C-7.115 11.125 -8.105 11.125 -9.125 11.125 C-9.125 9.475 -9.125 7.825 -9.125 6.125 C-8.135 6.125 -7.145 6.125 -6.125 6.125 C-6.00125 5.50625 -5.8775 4.8875 -5.75 4.25 C-4.69907882 0.67686797 -3.69463256 0.1477853 0 0 Z " fill="#fdfdfd" transform="translate(74.125,4.875)"/>
<path d="M0 0 C1.98 0 3.96 0 6 0 C6 5.61 6 11.22 6 17 C4.02 17 2.04 17 0 17 C0 11.39 0 5.78 0 0 Z " fill="#fdfdfd" transform="translate(58,11)"/>
<path d="M0 0 C2.625 0.375 2.625 0.375 5 1 C5.625 3.375 5.625 3.375 6 6 C5.34 6.66 4.68 7.32 4 8 C1.375 7.625 1.375 7.625 -1 7 C-1.625 4.625 -1.625 4.625 -2 2 C-1.34 1.34 -0.68 0.68 0 0 Z " fill="#FFF6F6" transform="translate(14,16)"/>
<path d="M0 0 C1.98 0 3.96 0 6 0 C6 1.65 6 3.3 6 5 C4.02 5 2.04 5 0 5 C0 3.35 0 1.7 0 0 Z " fill="#fdfdfd" transform="translate(58,5)"/>
<path d="M0 0 C1.98 0 3.96 0 6 0 C6 1.32 6 2.64 6 4 C4.02 4 2.04 4 0 4 C0 2.68 0 1.36 0 0 Z " fill="#fdfdfd" transform="translate(108,10)"/>
</svg>
